{"glyphs":{"0":{"ha":1091,"x_min":0,"x_max":0,"o":"m 595 297 b 397 297 595 297 397 297 b 297 397 397 297 297 397 b 297 645 297 397 297 645 b 694 446 297 645 694 446 b 694 397 694 446 694 397 b 595 297 694 397 595 297 z m 694 744 b 694 744 694 744 694 744 b 297 942 694 744 297 942 b 297 992 297 942 297 992 b 397 1091 297 992 397 1091 b 595 1091 397 1091 595 1091 b 694 992 595 1091 694 992 b 694 744 694 992 694 744 z m 198 0 b 793 0 198 0 793 0 b 992 198 793 0 992 198 b 992 1190 992 198 992 1190 b 793 1389 992 1190 793 1389 b 198 1389 793 1389 198 1389 b 0 1190 198 1389 0 1190 b 0 198 0 1190 0 198 b 198 0 0 198 198 0 z "},"1":{"ha":595,"x_min":0,"x_max":0,"o":"m 0 0 b 496 0 0 0 496 0 b 496 297 496 0 496 297 b 397 297 496 297 397 297 b 397 1389 397 297 397 1389 b 0 1389 397 1389 0 1389 b 0 1091 0 1389 0 1091 b 99 1091 0 1091 99 1091 b 99 297 99 1091 99 297 b 0 297 99 297 0 297 b 0 0 0 297 0 0 z "},"2":{"ha":1091,"x_min":0,"x_max":0,"o":"m 0 0 b 992 0 0 0 992 0 b 992 397 992 0 992 397 b 694 397 992 397 694 397 b 694 297 694 397 694 297 b 297 297 694 297 297 297 b 297 496 297 297 297 496 b 397 595 297 496 397 595 b 793 595 397 595 793 595 b 992 793 793 595 992 793 b 992 1190 992 793 992 1190 b 793 1389 992 1190 793 1389 b 99 1389 793 1389 99 1389 b 0 1290 99 1389 0 1290 b 0 992 0 1290 0 992 b 297 992 0 992 297 992 b 297 1042 297 992 297 1042 b 347 1091 297 1042 347 1091 b 595 1091 347 1091 595 1091 b 694 992 595 1091 694 992 b 595 893 694 992 595 893 b 198 893 595 893 198 893 b 0 694 198 893 0 694 b 0 0 0 694 0 0 z "},"3":{"ha":1091,"x_min":0,"x_max":0,"o":"m 99 0 b 793 0 99 0 793 0 b 992 198 793 0 992 198 b 992 694 992 198 992 694 b 942 744 992 694 942 744 b 991 793 942 744 991 793 b 992 793 991 793 992 793 b 992 1190 992 793 992 1190 b 793 1389 992 1190 793 1389 b 99 1389 793 1389 99 1389 b 0 1290 99 1389 0 1290 b 0 992 0 1290 0 992 b 297 992 0 992 297 992 b 297 1042 297 992 297 1042 b 347 1091 297 1042 347 1091 b 595 1091 347 1091 595 1091 b 694 992 595 1091 694 992 b 595 893 694 992 595 893 b 397 893 595 893 397 893 b 397 595 397 893 397 595 b 595 595 397 595 595 595 b 694 496 595 595 694 496 b 694 397 694 496 694 397 b 595 297 694 397 595 297 b 347 297 595 297 347 297 b 297 347 347 297 297 347 b 297 397 297 347 297 397 b 0 397 297 397 0 397 b 0 99 0 397 0 99 b 99 0 0 99 99 0 z "},"4":{"ha":1091,"x_min":0,"x_max":0,"o":"m 496 0 b 992 0 496 0 992 0 b 992 297 992 0 992 297 b 893 297 992 297 893 297 b 893 496 893 297 893 496 b 992 496 893 496 992 496 b 992 793 992 496 992 793 b 893 793 992 793 893 793 b 893 1389 893 793 893 1389 b 595 1389 893 1389 595 1389 b 595 793 595 1389 595 793 b 297 793 595 793 297 793 b 297 1389 297 793 297 1389 b 0 1389 297 1389 0 1389 b 0 496 0 1389 0 496 b 595 496 0 496 595 496 b 595 297 595 496 595 297 b 496 297 595 297 496 297 b 496 0 496 297 496 0 z "},"5":{"ha":1091,"x_min":0,"x_max":0,"o":"m 0 0 b 297 0 0 0 297 0 b 297 50 297 0 297 50 b 347 0 297 50 347 0 b 793 0 347 0 793 0 b 992 198 793 0 992 198 b 992 694 992 198 992 694 b 793 893 992 694 793 893 b 297 893 793 893 297 893 b 297 1091 297 893 297 1091 b 694 1091 297 1091 694 1091 b 694 992 694 1091 694 992 b 992 992 694 992 992 992 b 992 1389 992 992 992 1389 b 0 1389 992 1389 0 1389 b 0 595 0 1389 0 595 b 595 595 0 595 595 595 b 694 496 595 595 694 496 b 694 397 694 496 694 397 b 595 297 694 397 595 297 b 347 297 595 297 347 297 b 297 347 347 297 297 347 b 297 397 297 347 297 397 b 0 397 297 397 0 397 b 0 0 0 397 0 0 z "},"6":{"ha":1091,"x_min":0,"x_max":0,"o":"m 595 297 b 397 297 595 297 397 297 b 297 397 397 297 297 397 b 297 595 297 397 297 595 b 595 595 297 595 595 595 b 694 496 595 595 694 496 b 694 397 694 496 694 397 b 595 297 694 397 595 297 z m 198 0 b 793 0 198 0 793 0 b 992 198 793 0 992 198 b 992 694 992 198 992 694 b 793 893 992 694 793 893 b 297 893 793 893 297 893 b 297 992 297 893 297 992 b 397 1091 297 992 397 1091 b 645 1091 397 1091 645 1091 b 694 1042 645 1091 694 1042 b 694 992 694 1042 694 992 b 992 992 694 992 992 992 b 992 1389 992 992 992 1389 b 694 1389 992 1389 694 1389 b 694 1339 694 1389 694 1339 b 645 1389 694 1339 645 1389 b 198 1389 645 1389 198 1389 b 0 1190 198 1389 0 1190 b 0 198 0 1190 0 198 b 198 0 0 198 198 0 z "},"7":{"ha":1091,"x_min":0,"x_max":0,"o":"m 248 0 b 793 0 248 0 793 0 b 793 297 793 0 793 297 b 694 297 793 297 694 297 b 942 1290 694 297 942 1290 b 942 1389 942 1290 942 1389 b 0 1389 942 1389 0 1389 b 0 992 0 1389 0 992 b 297 992 0 992 297 992 b 297 1091 297 992 297 1091 b 570 1091 297 1091 570 1091 b 372 297 570 1091 372 297 b 248 297 372 297 248 297 b 248 0 248 297 248 0 z "},"8":{"ha":1091,"x_min":0,"x_max":0,"o":"m 595 297 b 397 297 595 297 397 297 b 297 397 397 297 297 397 b 297 496 297 397 297 496 b 397 595 297 496 397 595 b 595 595 397 595 595 595 b 694 496 595 595 694 496 b 694 397 694 496 694 397 b 595 297 694 397 595 297 z m 595 893 b 397 893 595 893 397 893 b 297 992 397 893 297 992 b 397 1091 297 992 397 1091 b 595 1091 397 1091 595 1091 b 694 992 595 1091 694 992 b 595 893 694 992 595 893 z m 198 0 b 793 0 198 0 793 0 b 992 198 793 0 992 198 b 992 694 992 198 992 694 b 942 744 992 694 942 744 b 991 793 942 744 991 793 b 992 793 991 793 992 793 b 992 1190 992 793 992 1190 b 793 1389 992 1190 793 1389 b 198 1389 793 1389 198 1389 b 0 1190 198 1389 0 1190 b 0 793 0 1190 0 793 b 0 793 0 793 0 793 b 50 744 0 793 50 744 b 0 694 50 744 0 694 b 0 198 0 694 0 198 b 198 0 0 198 198 0 z "},"9":{"ha":1091,"x_min":0,"x_max":0,"o":"m 694 893 b 397 893 694 893 397 893 b 297 992 397 893 297 992 b 397 1091 297 992 397 1091 b 595 1091 397 1091 595 1091 b 694 992 595 1091 694 992 b 694 893 694 992 694 893 z m 198 0 b 793 0 198 0 793 0 b 992 198 793 0 992 198 b 992 1190 992 198 992 1190 b 793 1389 992 1190 793 1389 b 198 1389 793 1389 198 1389 b 0 1190 198 1389 0 1190 b 0 793 0 1190 0 793 b 198 595 0 793 198 595 b 694 595 198 595 694 595 b 694 397 694 595 694 397 b 595 297 694 397 595 297 b 397 297 595 297 397 297 b 297 397 397 297 297 397 b 297 496 297 397 297 496 b 0 496 297 496 0 496 b 0 198 0 496 0 198 b 198 0 0 198 198 0 z "}," ":{"ha":496,"x_min":0,"x_max":0,"o":""},"!":{"ha":397,"x_min":0,"x_max":0,"o":"m 0 0 b 297 0 0 0 297 0 b 297 297 297 0 297 297 b 0 297 297 297 0 297 b 0 0 0 297 0 0 z m 0 397 b 297 397 0 397 297 397 b 297 1389 297 397 297 1389 b 0 1389 297 1389 0 1389 b 0 397 0 1389 0 397 z "},"\"":{"ha":793,"x_min":0,"x_max":0,"o":"m 0 1190 b 198 1190 0 1190 198 1190 b 297 1290 198 1190 297 1290 b 297 1686 297 1290 297 1686 b 0 1686 297 1686 0 1686 b 0 1190 0 1686 0 1190 z m 397 1190 b 595 1190 397 1190 595 1190 b 694 1290 595 1190 694 1290 b 694 1686 694 1290 694 1686 b 397 1686 694 1686 397 1686 b 397 1190 397 1686 397 1190 z "},"#":{"ha":1290,"x_min":0,"x_max":0,"o":"m 694 595 b 496 595 694 595 496 595 b 496 793 496 595 496 793 b 694 793 496 793 694 793 b 694 595 694 793 694 595 z m 198 0 b 496 0 198 0 496 0 b 496 297 496 0 496 297 b 694 297 496 297 694 297 b 694 0 694 297 694 0 b 992 0 694 0 992 0 b 992 297 992 0 992 297 b 1190 297 992 297 1190 297 b 1190 595 1190 297 1190 595 b 992 595 1190 595 992 595 b 992 793 992 595 992 793 b 1190 793 992 793 1190 793 b 1190 1091 1190 793 1190 1091 b 992 1091 1190 1091 992 1091 b 992 1389 992 1091 992 1389 b 694 1389 992 1389 694 1389 b 694 1091 694 1389 694 1091 b 496 1091 694 1091 496 1091 b 496 1389 496 1091 496 1389 b 198 1389 496 1389 198 1389 b 198 1091 198 1389 198 1091 b 0 1091 198 1091 0 1091 b 0 793 0 1091 0 793 b 198 793 0 793 198 793 b 198 595 198 793 198 595 b 0 595 198 595 0 595 b 0 297 0 595 0 297 b 198 297 0 297 198 297 b 198 0 198 297 198 0 z "},"$":{"ha":1091,"x_min":0,"x_max":0,"o":"m 347 -99 b 645 -99 347 -99 645 -99 b 645 0 645 -99 645 0 b 793 0 645 0 793 0 b 992 198 793 0 992 198 b 992 694 992 198 992 694 b 793 893 992 694 793 893 b 397 893 793 893 397 893 b 297 992 397 893 297 992 b 397 1091 297 992 397 1091 b 645 1091 397 1091 645 1091 b 694 1042 645 1091 694 1042 b 694 992 694 1042 694 992 b 992 992 694 992 992 992 b 992 1389 992 992 992 1389 b 694 1389 992 1389 694 1389 b 694 1339 694 1389 694 1339 b 645 1389 694 1339 645 1389 b 645 1488 645 1389 645 1488 b 347 1488 645 1488 347 1488 b 347 1389 347 1488 347 1389 b 198 1389 347 1389 198 1389 b 0 1190 198 1389 0 1190 b 0 793 0 1190 0 793 b 198 595 0 793 198 595 b 595 595 198 595 595 595 b 694 496 595 595 694 496 b 694 397 694 496 694 397 b 595 297 694 397 595 297 b 347 297 595 297 347 297 b 297 347 347 297 297 347 b 297 397 297 347 297 397 b 0 397 297 397 0 397 b 0 0 0 397 0 0 b 297 0 0 0 297 0 b 297 50 297 0 297 50 b 347 0 297 50 347 0 b 347 -99 347 0 347 -99 z "},"%":{"ha":1091,"x_min":0,"x_max":0,"o":"m 793 198 b 992 198 793 198 992 198 b 992 397 992 198 992 397 b 893 496 992 397 893 496 b 694 496 893 496 694 496 b 694 297 694 496 694 297 b 793 198 694 297 793 198 z m 99 893 b 297 893 99 893 297 893 b 297 1091 297 893 297 1091 b 198 1190 297 1091 198 1190 b 0 1190 198 1190 0 1190 b 0 992 0 1190 0 992 b 99 893 0 992 99 893 z m 0 0 b 297 0 0 0 297 0 b 992 1389 297 0 992 1389 b 694 1389 992 1389 694 1389 b 0 0 694 1389 0 0 z "},"'":{"ha":397,"x_min":0,"x_max":0,"o":"m 0 1190 b 198 1190 0 1190 198 1190 b 297 1290 198 1190 297 1290 b 297 1686 297 1290 297 1686 b 0 1686 297 1686 0 1686 b 0 1190 0 1686 0 1190 z "},"+":{"ha":793,"x_min":0,"x_max":0,"o":"m 198 397 b 496 397 198 397 496 397 b 496 595 496 397 496 595 b 694 595 496 595 694 595 b 694 893 694 595 694 893 b 496 893 694 893 496 893 b 496 1091 496 893 496 1091 b 198 1091 496 1091 198 1091 b 198 893 198 1091 198 893 b 0 893 198 893 0 893 b 0 595 0 893 0 595 b 198 595 0 595 198 595 b 198 397 198 595 198 397 z "},",":{"ha":397,"x_min":0,"x_max":0,"o":"m 0 -198 b 198 -198 0 -198 198 -198 b 297 -99 198 -198 297 -99 b 297 198 297 -99 297 198 b 198 297 297 198 198 297 b 0 297 198 297 0 297 b 0 0 0 297 0 0 b 99 0 0 0 99 0 b 0 -99 99 0 0 -99 b 0 -198 0 -99 0 -198 z "},".":{"ha":397,"x_min":0,"x_max":0,"o":"m 0 0 b 297 0 0 0 297 0 b 297 297 297 0 297 297 b 0 297 297 297 0 297 b 0 0 0 297 0 0 z "},"/":{"ha":1091,"x_min":0,"x_max":0,"o":"m 0 0 b 297 0 0 0 297 0 b 992 1389 297 0 992 1389 b 694 1389 992 1389 694 1389 b 0 0 694 1389 0 0 z "},"?":{"ha":1091,"x_min":0,"x_max":0,"o":"m 347 0 b 645 0 347 0 645 0 b 645 248 645 0 645 248 b 347 248 645 248 347 248 b 347 0 347 248 347 0 z m 347 397 b 645 397 347 397 645 397 b 645 595 645 397 645 595 b 793 595 645 595 793 595 b 992 793 793 595 992 793 b 992 1190 992 793 992 1190 b 793 1389 992 1190 793 1389 b 198 1389 793 1389 198 1389 b 0 1190 198 1389 0 1190 b 0 893 0 1190 0 893 b 297 893 0 893 297 893 b 297 992 297 893 297 992 b 397 1091 297 992 397 1091 b 595 1091 397 1091 595 1091 b 694 992 595 1091 694 992 b 595 893 694 992 595 893 b 496 893 595 893 496 893 b 347 744 496 893 347 744 b 347 397 347 744 347 397 z "},"A":{"ha":1290,"x_min":0,"x_max":0,"o":"m 669 694 b 521 694 669 694 521 694 b 595 992 521 694 595 992 b 669 694 595 992 669 694 z m 0 0 b 496 0 0 0 496 0 b 496 297 496 0 496 297 b 421 297 496 297 421 297 b 446 397 421 297 446 397 b 744 397 446 397 744 397 b 769 297 744 397 769 297 b 694 297 769 297 694 297 b 694 0 694 297 694 0 b 1190 0 694 0 1190 0 b 1190 297 1190 0 1190 297 b 1091 297 1190 297 1091 297 b 818 1389 1091 297 818 1389 b 198 1389 818 1389 198 1389 b 198 1091 198 1389 198 1091 b 297 1091 198 1091 297 1091 b 99 297 297 1091 99 297 b 0 297 99 297 0 297 b 0 0 0 297 0 0 z "},"B":{"ha":1190,"x_min":0,"x_max":0,"o":"m 694 297 b 397 297 694 297 397 297 b 397 595 397 297 397 595 b 694 595 397 595 694 595 b 793 496 694 595 793 496 b 793 397 793 496 793 397 b 694 297 793 397 694 297 z m 694 893 b 397 893 694 893 397 893 b 397 1091 397 893 397 1091 b 694 1091 397 1091 694 1091 b 793 992 694 1091 793 992 b 694 893 793 992 694 893 z m 0 0 b 893 0 0 0 893 0 b 1091 198 893 0 1091 198 b 1091 694 1091 198 1091 694 b 1042 744 1091 694 1042 744 b 1091 793 1042 744 1091 793 b 1091 793 1091 793 1091 793 b 1091 1190 1091 793 1091 1190 b 893 1389 1091 1190 893 1389 b 0 1389 893 1389 0 1389 b 0 1091 0 1389 0 1091 b 99 1091 0 1091 99 1091 b 99 297 99 1091 99 297 b 0 297 99 297 0 297 b 0 0 0 297 0 0 z "},"C":{"ha":1091,"x_min":0,"x_max":0,"o":"m 198 0 b 793 0 198 0 793 0 b 992 198 793 0 992 198 b 992 496 992 198 992 496 b 694 496 992 496 694 496 b 694 397 694 496 694 397 b 595 297 694 397 595 297 b 397 297 595 297 397 297 b 297 397 397 297 297 397 b 297 992 297 397 297 992 b 397 1091 297 992 397 1091 b 595 1091 397 1091 595 1091 b 694 992 595 1091 694 992 b 694 893 694 992 694 893 b 992 893 694 893 992 893 b 992 1190 992 893 992 1190 b 793 1389 992 1190 793 1389 b 198 1389 793 1389 198 1389 b 0 1190 198 1389 0 1190 b 0 198 0 1190 0 198 b 198 0 0 198 198 0 z "},"D":{"ha":1091,"x_min":0,"x_max":0,"o":"m 595 297 b 397 297 595 297 397 297 b 397 1091 397 297 397 1091 b 595 1091 397 1091 595 1091 b 694 992 595 1091 694 992 b 694 397 694 992 694 397 b 595 297 694 397 595 297 z m 0 0 b 793 0 0 0 793 0 b 992 198 793 0 992 198 b 992 1190 992 198 992 1190 b 793 1389 992 1190 793 1389 b 0 1389 793 1389 0 1389 b 0 1091 0 1389 0 1091 b 99 1091 0 1091 99 1091 b 99 297 99 1091 99 297 b 0 297 99 297 0 297 b 0 0 0 297 0 0 z "},"E":{"ha":1091,"x_min":0,"x_max":0,"o":"m 0 0 b 992 0 0 0 992 0 b 992 397 992 0 992 397 b 694 397 992 397 694 397 b 694 297 694 397 694 297 b 397 297 694 297 397 297 b 397 595 397 297 397 595 b 793 595 397 595 793 595 b 793 893 793 595 793 893 b 397 893 793 893 397 893 b 397 1091 397 893 397 1091 b 694 1091 397 1091 694 1091 b 694 992 694 1091 694 992 b 992 992 694 992 992 992 b 992 1389 992 992 992 1389 b 0 1389 992 1389 0 1389 b 0 1091 0 1389 0 1091 b 99 1091 0 1091 99 1091 b 99 297 99 1091 99 297 b 0 297 99 297 0 297 b 0 0 0 297 0 0 z "},"F":{"ha":1091,"x_min":0,"x_max":0,"o":"m 0 0 b 496 0 0 0 496 0 b 496 297 496 0 496 297 b 397 297 496 297 397 297 b 397 595 397 297 397 595 b 793 595 397 595 793 595 b 793 893 793 595 793 893 b 397 893 793 893 397 893 b 397 1091 397 893 397 1091 b 694 1091 397 1091 694 1091 b 694 992 694 1091 694 992 b 992 992 694 992 992 992 b 992 1389 992 992 992 1389 b 0 1389 992 1389 0 1389 b 0 1091 0 1389 0 1091 b 99 1091 0 1091 99 1091 b 99 297 99 1091 99 297 b 0 297 99 297 0 297 b 0 0 0 297 0 0 z "},"G":{"ha":1091,"x_min":0,"x_max":0,"o":"m 198 0 b 793 0 198 0 793 0 b 992 198 793 0 992 198 b 992 793 992 198 992 793 b 496 793 992 793 496 793 b 496 496 496 793 496 496 b 694 496 496 496 694 496 b 694 397 694 496 694 397 b 595 297 694 397 595 297 b 397 297 595 297 397 297 b 297 397 397 297 297 397 b 297 992 297 397 297 992 b 397 1091 297 992 397 1091 b 595 1091 397 1091 595 1091 b 694 992 595 1091 694 992 b 694 893 694 992 694 893 b 992 893 694 893 992 893 b 992 1190 992 893 992 1190 b 793 1389 992 1190 793 1389 b 198 1389 793 1389 198 1389 b 0 1190 198 1389 0 1190 b 0 198 0 1190 0 198 b 198 0 0 198 198 0 z "},"H":{"ha":1190,"x_min":0,"x_max":0,"o":"m 0 0 b 496 0 0 0 496 0 b 496 297 496 0 496 297 b 397 297 496 297 397 297 b 397 595 397 297 397 595 b 694 595 397 595 694 595 b 694 297 694 595 694 297 b 595 297 694 297 595 297 b 595 0 595 297 595 0 b 1091 0 595 0 1091 0 b 1091 297 1091 0 1091 297 b 992 297 1091 297 992 297 b 992 1091 992 297 992 1091 b 1091 1091 992 1091 1091 1091 b 1091 1389 1091 1091 1091 1389 b 595 1389 1091 1389 595 1389 b 595 1091 595 1389 595 1091 b 694 1091 595 1091 694 1091 b 694 893 694 1091 694 893 b 397 893 694 893 397 893 b 397 1091 397 893 397 1091 b 496 1091 397 1091 496 1091 b 496 1389 496 1091 496 1389 b 0 1389 496 1389 0 1389 b 0 1091 0 1389 0 1091 b 99 1091 0 1091 99 1091 b 99 297 99 1091 99 297 b 0 297 99 297 0 297 b 0 0 0 297 0 0 z "},"I":{"ha":595,"x_min":0,"x_max":0,"o":"m 0 0 b 496 0 0 0 496 0 b 496 297 496 0 496 297 b 397 297 496 297 397 297 b 397 1091 397 297 397 1091 b 496 1091 397 1091 496 1091 b 496 1389 496 1091 496 1389 b 0 1389 496 1389 0 1389 b 0 1091 0 1389 0 1091 b 99 1091 0 1091 99 1091 b 99 297 99 1091 99 297 b 0 297 99 297 0 297 b 0 0 0 297 0 0 z "},"J":{"ha":1091,"x_min":0,"x_max":0,"o":"m 198 0 b 793 0 198 0 793 0 b 992 198 793 0 992 198 b 992 1389 992 198 992 1389 b 496 1389 992 1389 496 1389 b 496 1091 496 1389 496 1091 b 694 1091 496 1091 694 1091 b 694 397 694 1091 694 397 b 595 297 694 397 595 297 b 397 297 595 297 397 297 b 297 397 397 297 297 397 b 297 595 297 397 297 595 b 0 595 297 595 0 595 b 0 198 0 595 0 198 b 198 0 0 198 198 0 z "},"K":{"ha":1190,"x_min":0,"x_max":0,"o":"m 0 0 b 496 0 0 0 496 0 b 496 297 496 0 496 297 b 397 297 496 297 397 297 b 397 595 397 297 397 595 b 496 595 397 595 496 595 b 645 297 496 595 645 297 b 595 297 645 297 595 297 b 595 0 595 297 595 0 b 1091 0 595 0 1091 0 b 1091 297 1091 0 1091 297 b 942 297 1091 297 942 297 b 744 694 942 297 744 694 b 942 1091 744 694 942 1091 b 1091 1091 942 1091 1091 1091 b 1091 1389 1091 1091 1091 1389 b 595 1389 1091 1389 595 1389 b 595 1091 595 1389 595 1091 b 645 1091 595 1091 645 1091 b 496 793 645 1091 496 793 b 397 793 496 793 397 793 b 397 1091 397 793 397 1091 b 496 1091 397 1091 496 1091 b 496 1389 496 1091 496 1389 b 0 1389 496 1389 0 1389 b 0 1091 0 1389 0 1091 b 99 1091 0 1091 99 1091 b 99 297 99 1091 99 297 b 0 297 99 297 0 297 b 0 0 0 297 0 0 z "},"L":{"ha":1091,"x_min":0,"x_max":0,"o":"m 0 0 b 992 0 0 0 992 0 b 992 397 992 0 992 397 b 694 397 992 397 694 397 b 694 297 694 397 694 297 b 397 297 694 297 397 297 b 397 1091 397 297 397 1091 b 496 1091 397 1091 496 1091 b 496 1389 496 1091 496 1389 b 0 1389 496 1389 0 1389 b 0 1091 0 1389 0 1091 b 99 1091 0 1091 99 1091 b 99 297 99 1091 99 297 b 0 297 99 297 0 297 b 0 0 0 297 0 0 z "},"M":{"ha":1389,"x_min":0,"x_max":0,"o":"m 0 0 b 496 0 0 0 496 0 b 496 297 496 0 496 297 b 397 297 496 297 397 297 b 397 793 397 297 397 793 b 645 297 397 793 645 297 b 893 793 645 297 893 793 b 893 297 893 793 893 297 b 793 297 893 297 793 297 b 793 0 793 297 793 0 b 1290 0 793 0 1290 0 b 1290 297 1290 0 1290 297 b 1190 297 1290 297 1190 297 b 1190 1091 1190 297 1190 1091 b 1290 1091 1190 1091 1290 1091 b 1290 1389 1290 1091 1290 1389 b 893 1389 1290 1389 893 1389 b 645 893 893 1389 645 893 b 397 1389 645 893 397 1389 b 0 1389 397 1389 0 1389 b 0 1091 0 1389 0 1091 b 99 1091 0 1091 99 1091 b 99 297 99 1091 99 297 b 0 297 99 297 0 297 b 0 0 0 297 0 0 z "},"N":{"ha":1290,"x_min":0,"x_max":0,"o":"m 0 0 b 496 0 0 0 496 0 b 496 297 496 0 496 297 b 397 297 496 297 397 297 b 397 793 397 297 397 793 b 793 0 397 793 793 0 b 1091 0 793 0 1091 0 b 1091 1091 1091 0 1091 1091 b 1190 1091 1091 1091 1190 1091 b 1190 1389 1190 1091 1190 1389 b 694 1389 1190 1389 694 1389 b 694 1091 694 1389 694 1091 b 793 1091 694 1091 793 1091 b 793 595 793 1091 793 595 b 397 1389 793 595 397 1389 b 0 1389 397 1389 0 1389 b 0 1091 0 1389 0 1091 b 99 1091 0 1091 99 1091 b 99 297 99 1091 99 297 b 0 297 99 297 0 297 b 0 0 0 297 0 0 z "},"O":{"ha":1091,"x_min":0,"x_max":0,"o":"m 595 297 b 397 297 595 297 397 297 b 297 397 397 297 297 397 b 297 992 297 397 297 992 b 397 1091 297 992 397 1091 b 595 1091 397 1091 595 1091 b 694 992 595 1091 694 992 b 694 397 694 992 694 397 b 595 297 694 397 595 297 z m 198 0 b 793 0 198 0 793 0 b 992 198 793 0 992 198 b 992 1190 992 198 992 1190 b 793 1389 992 1190 793 1389 b 198 1389 793 1389 198 1389 b 0 1190 198 1389 0 1190 b 0 198 0 1190 0 198 b 198 0 0 198 198 0 z "},"P":{"ha":1190,"x_min":0,"x_max":0,"o":"m 694 893 b 397 893 694 893 397 893 b 397 1091 397 893 397 1091 b 694 1091 397 1091 694 1091 b 793 992 694 1091 793 992 b 694 893 793 992 694 893 z m 0 0 b 496 0 0 0 496 0 b 496 297 496 0 496 297 b 397 297 496 297 397 297 b 397 595 397 297 397 595 b 893 595 397 595 893 595 b 1091 793 893 595 1091 793 b 1091 1190 1091 793 1091 1190 b 893 1389 1091 1190 893 1389 b 0 1389 893 1389 0 1389 b 0 1091 0 1389 0 1091 b 99 1091 0 1091 99 1091 b 99 297 99 1091 99 297 b 0 297 99 297 0 297 b 0 0 0 297 0 0 z "},"Q":{"ha":1091,"x_min":0,"x_max":0,"o":"m 595 297 b 397 297 595 297 397 297 b 297 397 397 297 297 397 b 297 992 297 397 297 992 b 397 1091 297 992 397 1091 b 595 1091 397 1091 595 1091 b 694 992 595 1091 694 992 b 694 397 694 992 694 397 b 595 297 694 397 595 297 z m 496 -198 b 793 -198 496 -198 793 -198 b 694 0 793 -198 694 0 b 793 0 694 0 793 0 b 992 198 793 0 992 198 b 992 1190 992 198 992 1190 b 793 1389 992 1190 793 1389 b 198 1389 793 1389 198 1389 b 0 1190 198 1389 0 1190 b 0 198 0 1190 0 198 b 198 0 0 198 198 0 b 397 0 198 0 397 0 b 496 -198 397 0 496 -198 z "},"R":{"ha":1190,"x_min":0,"x_max":0,"o":"m 694 893 b 397 893 694 893 397 893 b 397 1091 397 893 397 1091 b 694 1091 397 1091 694 1091 b 793 992 694 1091 793 992 b 694 893 793 992 694 893 z m 0 0 b 496 0 0 0 496 0 b 496 297 496 0 496 297 b 397 297 496 297 397 297 b 397 595 397 297 397 595 b 496 595 397 595 496 595 b 645 297 496 595 645 297 b 595 297 645 297 595 297 b 595 0 595 297 595 0 b 1091 0 595 0 1091 0 b 1091 297 1091 0 1091 297 b 942 297 1091 297 942 297 b 793 595 942 297 793 595 b 893 595 793 595 893 595 b 1091 793 893 595 1091 793 b 1091 1190 1091 793 1091 1190 b 893 1389 1091 1190 893 1389 b 0 1389 893 1389 0 1389 b 0 1091 0 1389 0 1091 b 99 1091 0 1091 99 1091 b 99 297 99 1091 99 297 b 0 297 99 297 0 297 b 0 0 0 297 0 0 z "},"S":{"ha":1091,"x_min":0,"x_max":0,"o":"m 0 0 b 297 0 0 0 297 0 b 297 50 297 0 297 50 b 347 0 297 50 347 0 b 793 0 347 0 793 0 b 992 198 793 0 992 198 b 992 694 992 198 992 694 b 793 893 992 694 793 893 b 397 893 793 893 397 893 b 297 992 397 893 297 992 b 397 1091 297 992 397 1091 b 645 1091 397 1091 645 1091 b 694 1042 645 1091 694 1042 b 694 992 694 1042 694 992 b 992 992 694 992 992 992 b 992 1389 992 992 992 1389 b 694 1389 992 1389 694 1389 b 694 1339 694 1389 694 1339 b 645 1389 694 1339 645 1389 b 198 1389 645 1389 198 1389 b 0 1190 198 1389 0 1190 b 0 793 0 1190 0 793 b 198 595 0 793 198 595 b 595 595 198 595 595 595 b 694 496 595 595 694 496 b 694 397 694 496 694 397 b 595 297 694 397 595 297 b 347 297 595 297 347 297 b 297 347 347 297 297 347 b 297 397 297 347 297 397 b 0 397 297 397 0 397 b 0 0 0 397 0 0 z "},"T":{"ha":1190,"x_min":0,"x_max":0,"o":"m 297 0 b 793 0 297 0 793 0 b 793 297 793 0 793 297 b 694 297 793 297 694 297 b 694 1091 694 297 694 1091 b 793 1091 694 1091 793 1091 b 793 992 793 1091 793 992 b 1091 992 793 992 1091 992 b 1091 1389 1091 992 1091 1389 b 0 1389 1091 1389 0 1389 b 0 992 0 1389 0 992 b 297 992 0 992 297 992 b 297 1091 297 992 297 1091 b 397 1091 297 1091 397 1091 b 397 297 397 1091 397 297 b 297 297 397 297 297 297 b 297 0 297 297 297 0 z "},"U":{"ha":1190,"x_min":0,"x_max":0,"o":"m 297 0 b 793 0 297 0 793 0 b 992 198 793 0 992 198 b 992 1091 992 198 992 1091 b 1091 1091 992 1091 1091 1091 b 1091 1389 1091 1091 1091 1389 b 595 1389 1091 1389 595 1389 b 595 1091 595 1389 595 1091 b 694 1091 595 1091 694 1091 b 694 397 694 1091 694 397 b 595 297 694 397 595 297 b 496 297 595 297 496 297 b 397 397 496 297 397 397 b 397 1091 397 397 397 1091 b 496 1091 397 1091 496 1091 b 496 1389 496 1091 496 1389 b 0 1389 496 1389 0 1389 b 0 1091 0 1389 0 1091 b 99 1091 0 1091 99 1091 b 99 198 99 1091 99 198 b 297 0 99 198 297 0 z "},"V":{"ha":1290,"x_min":0,"x_max":0,"o":"m 372 0 b 818 0 372 0 818 0 b 1091 1091 818 0 1091 1091 b 1190 1091 1091 1091 1190 1091 b 1190 1389 1190 1091 1190 1389 b 694 1389 1190 1389 694 1389 b 694 1091 694 1389 694 1091 b 769 1091 694 1091 769 1091 b 595 397 769 1091 595 397 b 421 1091 595 397 421 1091 b 496 1091 421 1091 496 1091 b 496 1389 496 1091 496 1389 b 0 1389 496 1389 0 1389 b 0 1091 0 1389 0 1091 b 99 1091 0 1091 99 1091 b 372 0 99 1091 372 0 z "},"W":{"ha":1686,"x_min":0,"x_max":0,"o":"m 372 0 b 719 0 372 0 719 0 b 793 297 719 0 793 297 b 868 0 793 297 868 0 b 1215 0 868 0 1215 0 b 1488 1091 1215 0 1488 1091 b 1587 1091 1488 1091 1587 1091 b 1587 1389 1587 1091 1587 1389 b 1091 1389 1587 1389 1091 1389 b 1091 1091 1091 1389 1091 1091 b 1165 1091 1091 1091 1165 1091 b 1042 595 1165 1091 1042 595 b 918 1091 1042 595 918 1091 b 669 1091 918 1091 669 1091 b 546 595 669 1091 546 595 b 421 1091 546 595 421 1091 b 496 1091 421 1091 496 1091 b 496 1389 496 1091 496 1389 b 0 1389 496 1389 0 1389 b 0 1091 0 1389 0 1091 b 99 1091 0 1091 99 1091 b 372 0 99 1091 372 0 z "},"X":{"ha":1190,"x_min":0,"x_max":0,"o":"m 0 0 b 496 0 0 0 496 0 b 496 297 496 0 496 297 b 446 297 496 297 446 297 b 546 496 446 297 546 496 b 645 297 546 496 645 297 b 595 297 645 297 595 297 b 595 0 595 297 595 0 b 1091 0 595 0 1091 0 b 1091 297 1091 0 1091 297 b 942 297 1091 297 942 297 b 744 694 942 297 744 694 b 942 1091 744 694 942 1091 b 1091 1091 942 1091 1091 1091 b 1091 1389 1091 1091 1091 1389 b 595 1389 1091 1389 595 1389 b 595 1091 595 1389 595 1091 b 645 1091 595 1091 645 1091 b 546 893 645 1091 546 893 b 446 1091 546 893 446 1091 b 496 1091 446 1091 496 1091 b 496 1389 496 1091 496 1389 b 0 1389 496 1389 0 1389 b 0 1091 0 1389 0 1091 b 149 1091 0 1091 149 1091 b 347 694 149 1091 347 694 b 149 297 347 694 149 297 b 0 297 149 297 0 297 b 0 0 0 297 0 0 z "},"Y":{"ha":1190,"x_min":0,"x_max":0,"o":"m 297 0 b 793 0 297 0 793 0 b 793 297 793 0 793 297 b 694 297 793 297 694 297 b 694 595 694 297 694 595 b 942 1091 694 595 942 1091 b 1091 1091 942 1091 1091 1091 b 1091 1389 1091 1091 1091 1389 b 595 1389 1091 1389 595 1389 b 595 1091 595 1389 595 1091 b 645 1091 595 1091 645 1091 b 546 893 645 1091 546 893 b 446 1091 546 893 446 1091 b 496 1091 446 1091 496 1091 b 496 1389 496 1091 496 1389 b 0 1389 496 1389 0 1389 b 0 1091 0 1389 0 1091 b 149 1091 0 1091 149 1091 b 397 595 149 1091 397 595 b 397 297 397 595 397 297 b 297 297 397 297 297 297 b 297 0 297 297 297 0 z "},"Z":{"ha":1091,"x_min":0,"x_max":0,"o":"m 989 3 b 989 399 989 3 989 399 b 692 399 989 399 692 399 b 692 300 692 399 692 300 b 444 300 692 300 444 300 b 989 1392 444 300 989 1392 b -3 1392 989 1392 -3 1392 b -3 995 -3 1392 -3 995 b 295 995 -3 995 295 995 b 295 1094 295 995 295 1094 b 543 1094 295 1094 543 1094 b -3 3 543 1094 -3 3 b 989 3 -3 3 989 3 z "},"‘":{"ha":397,"x_min":0,"x_max":0,"o":"m 99 1190 b 297 1190 99 1190 297 1190 b 297 1488 297 1190 297 1488 b 198 1488 297 1488 198 1488 b 297 1587 198 1488 297 1587 b 297 1686 297 1587 297 1686 b 99 1686 297 1686 99 1686 b 0 1587 99 1686 0 1587 b 0 1290 0 1587 0 1290 b 99 1190 0 1290 99 1190 z "},"’":{"ha":397,"x_min":0,"x_max":0,"o":"m 0 1190 b 198 1190 0 1190 198 1190 b 297 1290 198 1190 297 1290 b 297 1587 297 1290 297 1587 b 198 1686 297 1587 198 1686 b 0 1686 198 1686 0 1686 b 0 1587 0 1686 0 1587 b 99 1488 0 1587 99 1488 b 0 1488 99 1488 0 1488 b 0 1190 0 1488 0 1190 z "},"“":{"ha":793,"x_min":0,"x_max":0,"o":"m 99 1190 b 297 1190 99 1190 297 1190 b 297 1488 297 1190 297 1488 b 198 1488 297 1488 198 1488 b 297 1587 198 1488 297 1587 b 297 1686 297 1587 297 1686 b 99 1686 297 1686 99 1686 b 0 1587 99 1686 0 1587 b 0 1290 0 1587 0 1290 b 99 1190 0 1290 99 1190 z m 496 1190 b 694 1190 496 1190 694 1190 b 694 1488 694 1190 694 1488 b 595 1488 694 1488 595 1488 b 694 1587 595 1488 694 1587 b 694 1686 694 1587 694 1686 b 496 1686 694 1686 496 1686 b 397 1587 496 1686 397 1587 b 397 1290 397 1587 397 1290 b 496 1190 397 1290 496 1190 z "},"”":{"ha":793,"x_min":0,"x_max":0,"o":"m 0 1190 b 198 1190 0 1190 198 1190 b 297 1290 198 1190 297 1290 b 297 1587 297 1290 297 1587 b 198 1686 297 1587 198 1686 b 0 1686 198 1686 0 1686 b 0 1389 0 1686 0 1389 b 99 1389 0 1389 99 1389 b 0 1290 99 1389 0 1290 b 0 1190 0 1290 0 1190 z m 397 1190 b 595 1190 397 1190 595 1190 b 694 1290 595 1190 694 1290 b 694 1587 694 1290 694 1587 b 595 1686 694 1587 595 1686 b 397 1686 595 1686 397 1686 b 397 1389 397 1686 397 1389 b 496 1389 397 1389 496 1389 b 397 1290 496 1389 397 1290 b 397 1190 397 1290 397 1190 z "},"a":{"ha":1290,"x_min":0,"x_max":0,"o":"m 669 694 b 521 694 669 694 521 694 b 595 992 521 694 595 992 b 669 694 595 992 669 694 z m 0 0 b 496 0 0 0 496 0 b 496 297 496 0 496 297 b 421 297 496 297 421 297 b 446 397 421 297 446 397 b 744 397 446 397 744 397 b 769 297 744 397 769 297 b 694 297 769 297 694 297 b 694 0 694 297 694 0 b 1190 0 694 0 1190 0 b 1190 297 1190 0 1190 297 b 1091 297 1190 297 1091 297 b 818 1389 1091 297 818 1389 b 198 1389 818 1389 198 1389 b 198 1091 198 1389 198 1091 b 297 1091 198 1091 297 1091 b 99 297 297 1091 99 297 b 0 297 99 297 0 297 b 0 0 0 297 0 0 z "},"b":{"ha":1190,"x_min":0,"x_max":0,"o":"m 694 297 b 397 297 694 297 397 297 b 397 595 397 297 397 595 b 694 595 397 595 694 595 b 793 496 694 595 793 496 b 793 397 793 496 793 397 b 694 297 793 397 694 297 z m 694 893 b 397 893 694 893 397 893 b 397 1091 397 893 397 1091 b 694 1091 397 1091 694 1091 b 793 992 694 1091 793 992 b 694 893 793 992 694 893 z m 0 0 b 893 0 0 0 893 0 b 1091 198 893 0 1091 198 b 1091 694 1091 198 1091 694 b 1042 744 1091 694 1042 744 b 1091 793 1042 744 1091 793 b 1091 793 1091 793 1091 793 b 1091 1190 1091 793 1091 1190 b 893 1389 1091 1190 893 1389 b 0 1389 893 1389 0 1389 b 0 1091 0 1389 0 1091 b 99 1091 0 1091 99 1091 b 99 297 99 1091 99 297 b 0 297 99 297 0 297 b 0 0 0 297 0 0 z "},"c":{"ha":1091,"x_min":0,"x_max":0,"o":"m 198 0 b 793 0 198 0 793 0 b 992 198 793 0 992 198 b 992 496 992 198 992 496 b 694 496 992 496 694 496 b 694 397 694 496 694 397 b 595 297 694 397 595 297 b 397 297 595 297 397 297 b 297 397 397 297 297 397 b 297 992 297 397 297 992 b 397 1091 297 992 397 1091 b 595 1091 397 1091 595 1091 b 694 992 595 1091 694 992 b 694 893 694 992 694 893 b 992 893 694 893 992 893 b 992 1190 992 893 992 1190 b 793 1389 992 1190 793 1389 b 198 1389 793 1389 198 1389 b 0 1190 198 1389 0 1190 b 0 198 0 1190 0 198 b 198 0 0 198 198 0 z "},"d":{"ha":1091,"x_min":0,"x_max":0,"o":"m 595 297 b 397 297 595 297 397 297 b 397 1091 397 297 397 1091 b 595 1091 397 1091 595 1091 b 694 992 595 1091 694 992 b 694 397 694 992 694 397 b 595 297 694 397 595 297 z m 0 0 b 793 0 0 0 793 0 b 992 198 793 0 992 198 b 992 1190 992 198 992 1190 b 793 1389 992 1190 793 1389 b 0 1389 793 1389 0 1389 b 0 1091 0 1389 0 1091 b 99 1091 0 1091 99 1091 b 99 297 99 1091 99 297 b 0 297 99 297 0 297 b 0 0 0 297 0 0 z "},"e":{"ha":1091,"x_min":0,"x_max":0,"o":"m 0 0 b 992 0 0 0 992 0 b 992 397 992 0 992 397 b 694 397 992 397 694 397 b 694 297 694 397 694 297 b 397 297 694 297 397 297 b 397 595 397 297 397 595 b 793 595 397 595 793 595 b 793 893 793 595 793 893 b 397 893 793 893 397 893 b 397 1091 397 893 397 1091 b 694 1091 397 1091 694 1091 b 694 992 694 1091 694 992 b 992 992 694 992 992 992 b 992 1389 992 992 992 1389 b 0 1389 992 1389 0 1389 b 0 1091 0 1389 0 1091 b 99 1091 0 1091 99 1091 b 99 297 99 1091 99 297 b 0 297 99 297 0 297 b 0 0 0 297 0 0 z "},"f":{"ha":1091,"x_min":0,"x_max":0,"o":"m 0 0 b 496 0 0 0 496 0 b 496 297 496 0 496 297 b 397 297 496 297 397 297 b 397 595 397 297 397 595 b 793 595 397 595 793 595 b 793 893 793 595 793 893 b 397 893 793 893 397 893 b 397 1091 397 893 397 1091 b 694 1091 397 1091 694 1091 b 694 992 694 1091 694 992 b 992 992 694 992 992 992 b 992 1389 992 992 992 1389 b 0 1389 992 1389 0 1389 b 0 1091 0 1389 0 1091 b 99 1091 0 1091 99 1091 b 99 297 99 1091 99 297 b 0 297 99 297 0 297 b 0 0 0 297 0 0 z "},"g":{"ha":1091,"x_min":0,"x_max":0,"o":"m 198 0 b 793 0 198 0 793 0 b 992 198 793 0 992 198 b 992 793 992 198 992 793 b 496 793 992 793 496 793 b 496 496 496 793 496 496 b 694 496 496 496 694 496 b 694 397 694 496 694 397 b 595 297 694 397 595 297 b 397 297 595 297 397 297 b 297 397 397 297 297 397 b 297 992 297 397 297 992 b 397 1091 297 992 397 1091 b 595 1091 397 1091 595 1091 b 694 992 595 1091 694 992 b 694 893 694 992 694 893 b 992 893 694 893 992 893 b 992 1190 992 893 992 1190 b 793 1389 992 1190 793 1389 b 198 1389 793 1389 198 1389 b 0 1190 198 1389 0 1190 b 0 198 0 1190 0 198 b 198 0 0 198 198 0 z "},"h":{"ha":1190,"x_min":0,"x_max":0,"o":"m 0 0 b 496 0 0 0 496 0 b 496 297 496 0 496 297 b 397 297 496 297 397 297 b 397 595 397 297 397 595 b 694 595 397 595 694 595 b 694 297 694 595 694 297 b 595 297 694 297 595 297 b 595 0 595 297 595 0 b 1091 0 595 0 1091 0 b 1091 297 1091 0 1091 297 b 992 297 1091 297 992 297 b 992 1091 992 297 992 1091 b 1091 1091 992 1091 1091 1091 b 1091 1389 1091 1091 1091 1389 b 595 1389 1091 1389 595 1389 b 595 1091 595 1389 595 1091 b 694 1091 595 1091 694 1091 b 694 893 694 1091 694 893 b 397 893 694 893 397 893 b 397 1091 397 893 397 1091 b 496 1091 397 1091 496 1091 b 496 1389 496 1091 496 1389 b 0 1389 496 1389 0 1389 b 0 1091 0 1389 0 1091 b 99 1091 0 1091 99 1091 b 99 297 99 1091 99 297 b 0 297 99 297 0 297 b 0 0 0 297 0 0 z "},"i":{"ha":595,"x_min":0,"x_max":0,"o":"m 0 0 b 496 0 0 0 496 0 b 496 297 496 0 496 297 b 397 297 496 297 397 297 b 397 1091 397 297 397 1091 b 496 1091 397 1091 496 1091 b 496 1389 496 1091 496 1389 b 0 1389 496 1389 0 1389 b 0 1091 0 1389 0 1091 b 99 1091 0 1091 99 1091 b 99 297 99 1091 99 297 b 0 297 99 297 0 297 b 0 0 0 297 0 0 z "},"j":{"ha":1091,"x_min":0,"x_max":0,"o":"m 198 0 b 793 0 198 0 793 0 b 992 198 793 0 992 198 b 992 1389 992 198 992 1389 b 496 1389 992 1389 496 1389 b 496 1091 496 1389 496 1091 b 694 1091 496 1091 694 1091 b 694 397 694 1091 694 397 b 595 297 694 397 595 297 b 397 297 595 297 397 297 b 297 397 397 297 297 397 b 297 595 297 397 297 595 b 0 595 297 595 0 595 b 0 198 0 595 0 198 b 198 0 0 198 198 0 z "},"k":{"ha":1190,"x_min":0,"x_max":0,"o":"m 0 0 b 496 0 0 0 496 0 b 496 297 496 0 496 297 b 397 297 496 297 397 297 b 397 595 397 297 397 595 b 496 595 397 595 496 595 b 645 297 496 595 645 297 b 595 297 645 297 595 297 b 595 0 595 297 595 0 b 1091 0 595 0 1091 0 b 1091 297 1091 0 1091 297 b 942 297 1091 297 942 297 b 744 694 942 297 744 694 b 942 1091 744 694 942 1091 b 1091 1091 942 1091 1091 1091 b 1091 1389 1091 1091 1091 1389 b 595 1389 1091 1389 595 1389 b 595 1091 595 1389 595 1091 b 645 1091 595 1091 645 1091 b 496 793 645 1091 496 793 b 397 793 496 793 397 793 b 397 1091 397 793 397 1091 b 496 1091 397 1091 496 1091 b 496 1389 496 1091 496 1389 b 0 1389 496 1389 0 1389 b 0 1091 0 1389 0 1091 b 99 1091 0 1091 99 1091 b 99 297 99 1091 99 297 b 0 297 99 297 0 297 b 0 0 0 297 0 0 z "},"l":{"ha":1091,"x_min":0,"x_max":0,"o":"m 0 0 b 992 0 0 0 992 0 b 992 397 992 0 992 397 b 694 397 992 397 694 397 b 694 297 694 397 694 297 b 397 297 694 297 397 297 b 397 1091 397 297 397 1091 b 496 1091 397 1091 496 1091 b 496 1389 496 1091 496 1389 b 0 1389 496 1389 0 1389 b 0 1091 0 1389 0 1091 b 99 1091 0 1091 99 1091 b 99 297 99 1091 99 297 b 0 297 99 297 0 297 b 0 0 0 297 0 0 z "},"m":{"ha":1389,"x_min":0,"x_max":0,"o":"m 0 0 b 496 0 0 0 496 0 b 496 297 496 0 496 297 b 397 297 496 297 397 297 b 397 793 397 297 397 793 b 645 297 397 793 645 297 b 893 793 645 297 893 793 b 893 297 893 793 893 297 b 793 297 893 297 793 297 b 793 0 793 297 793 0 b 1290 0 793 0 1290 0 b 1290 297 1290 0 1290 297 b 1190 297 1290 297 1190 297 b 1190 1091 1190 297 1190 1091 b 1290 1091 1190 1091 1290 1091 b 1290 1389 1290 1091 1290 1389 b 893 1389 1290 1389 893 1389 b 645 893 893 1389 645 893 b 397 1389 645 893 397 1389 b 0 1389 397 1389 0 1389 b 0 1091 0 1389 0 1091 b 99 1091 0 1091 99 1091 b 99 297 99 1091 99 297 b 0 297 99 297 0 297 b 0 0 0 297 0 0 z "},"n":{"ha":1290,"x_min":0,"x_max":0,"o":"m 0 0 b 496 0 0 0 496 0 b 496 297 496 0 496 297 b 397 297 496 297 397 297 b 397 793 397 297 397 793 b 793 0 397 793 793 0 b 1091 0 793 0 1091 0 b 1091 1091 1091 0 1091 1091 b 1190 1091 1091 1091 1190 1091 b 1190 1389 1190 1091 1190 1389 b 694 1389 1190 1389 694 1389 b 694 1091 694 1389 694 1091 b 793 1091 694 1091 793 1091 b 793 595 793 1091 793 595 b 397 1389 793 595 397 1389 b 0 1389 397 1389 0 1389 b 0 1091 0 1389 0 1091 b 99 1091 0 1091 99 1091 b 99 297 99 1091 99 297 b 0 297 99 297 0 297 b 0 0 0 297 0 0 z "},"o":{"ha":1091,"x_min":0,"x_max":0,"o":"m 595 297 b 397 297 595 297 397 297 b 297 397 397 297 297 397 b 297 992 297 397 297 992 b 397 1091 297 992 397 1091 b 595 1091 397 1091 595 1091 b 694 992 595 1091 694 992 b 694 397 694 992 694 397 b 595 297 694 397 595 297 z m 198 0 b 793 0 198 0 793 0 b 992 198 793 0 992 198 b 992 1190 992 198 992 1190 b 793 1389 992 1190 793 1389 b 198 1389 793 1389 198 1389 b 0 1190 198 1389 0 1190 b 0 198 0 1190 0 198 b 198 0 0 198 198 0 z "},"p":{"ha":1190,"x_min":0,"x_max":0,"o":"m 694 893 b 397 893 694 893 397 893 b 397 1091 397 893 397 1091 b 694 1091 397 1091 694 1091 b 793 992 694 1091 793 992 b 694 893 793 992 694 893 z m 0 0 b 496 0 0 0 496 0 b 496 297 496 0 496 297 b 397 297 496 297 397 297 b 397 595 397 297 397 595 b 893 595 397 595 893 595 b 1091 793 893 595 1091 793 b 1091 1190 1091 793 1091 1190 b 893 1389 1091 1190 893 1389 b 0 1389 893 1389 0 1389 b 0 1091 0 1389 0 1091 b 99 1091 0 1091 99 1091 b 99 297 99 1091 99 297 b 0 297 99 297 0 297 b 0 0 0 297 0 0 z "},"q":{"ha":1091,"x_min":0,"x_max":0,"o":"m 595 297 b 397 297 595 297 397 297 b 297 397 397 297 297 397 b 297 992 297 397 297 992 b 397 1091 297 992 397 1091 b 595 1091 397 1091 595 1091 b 694 992 595 1091 694 992 b 694 397 694 992 694 397 b 595 297 694 397 595 297 z m 496 -198 b 793 -198 496 -198 793 -198 b 694 0 793 -198 694 0 b 793 0 694 0 793 0 b 992 198 793 0 992 198 b 992 1190 992 198 992 1190 b 793 1389 992 1190 793 1389 b 198 1389 793 1389 198 1389 b 0 1190 198 1389 0 1190 b 0 198 0 1190 0 198 b 198 0 0 198 198 0 b 397 0 198 0 397 0 b 496 -198 397 0 496 -198 z "},"r":{"ha":1190,"x_min":0,"x_max":0,"o":"m 694 893 b 397 893 694 893 397 893 b 397 1091 397 893 397 1091 b 694 1091 397 1091 694 1091 b 793 992 694 1091 793 992 b 694 893 793 992 694 893 z m 0 0 b 496 0 0 0 496 0 b 496 297 496 0 496 297 b 397 297 496 297 397 297 b 397 595 397 297 397 595 b 496 595 397 595 496 595 b 645 297 496 595 645 297 b 595 297 645 297 595 297 b 595 0 595 297 595 0 b 1091 0 595 0 1091 0 b 1091 297 1091 0 1091 297 b 942 297 1091 297 942 297 b 793 595 942 297 793 595 b 893 595 793 595 893 595 b 1091 793 893 595 1091 793 b 1091 1190 1091 793 1091 1190 b 893 1389 1091 1190 893 1389 b 0 1389 893 1389 0 1389 b 0 1091 0 1389 0 1091 b 99 1091 0 1091 99 1091 b 99 297 99 1091 99 297 b 0 297 99 297 0 297 b 0 0 0 297 0 0 z "},"s":{"ha":1091,"x_min":0,"x_max":0,"o":"m 0 0 b 297 0 0 0 297 0 b 297 50 297 0 297 50 b 347 0 297 50 347 0 b 793 0 347 0 793 0 b 992 198 793 0 992 198 b 992 694 992 198 992 694 b 793 893 992 694 793 893 b 397 893 793 893 397 893 b 297 992 397 893 297 992 b 397 1091 297 992 397 1091 b 645 1091 397 1091 645 1091 b 694 1042 645 1091 694 1042 b 694 992 694 1042 694 992 b 992 992 694 992 992 992 b 992 1389 992 992 992 1389 b 694 1389 992 1389 694 1389 b 694 1339 694 1389 694 1339 b 645 1389 694 1339 645 1389 b 198 1389 645 1389 198 1389 b 0 1190 198 1389 0 1190 b 0 793 0 1190 0 793 b 198 595 0 793 198 595 b 595 595 198 595 595 595 b 694 496 595 595 694 496 b 694 397 694 496 694 397 b 595 297 694 397 595 297 b 347 297 595 297 347 297 b 297 347 347 297 297 347 b 297 397 297 347 297 397 b 0 397 297 397 0 397 b 0 0 0 397 0 0 z "},"t":{"ha":1190,"x_min":0,"x_max":0,"o":"m 297 0 b 793 0 297 0 793 0 b 793 297 793 0 793 297 b 694 297 793 297 694 297 b 694 1091 694 297 694 1091 b 793 1091 694 1091 793 1091 b 793 992 793 1091 793 992 b 1091 992 793 992 1091 992 b 1091 1389 1091 992 1091 1389 b 0 1389 1091 1389 0 1389 b 0 992 0 1389 0 992 b 297 992 0 992 297 992 b 297 1091 297 992 297 1091 b 397 1091 297 1091 397 1091 b 397 297 397 1091 397 297 b 297 297 397 297 297 297 b 297 0 297 297 297 0 z "},"u":{"ha":1190,"x_min":0,"x_max":0,"o":"m 297 0 b 793 0 297 0 793 0 b 992 198 793 0 992 198 b 992 1091 992 198 992 1091 b 1091 1091 992 1091 1091 1091 b 1091 1389 1091 1091 1091 1389 b 595 1389 1091 1389 595 1389 b 595 1091 595 1389 595 1091 b 694 1091 595 1091 694 1091 b 694 397 694 1091 694 397 b 595 297 694 397 595 297 b 496 297 595 297 496 297 b 397 397 496 297 397 397 b 397 1091 397 397 397 1091 b 496 1091 397 1091 496 1091 b 496 1389 496 1091 496 1389 b 0 1389 496 1389 0 1389 b 0 1091 0 1389 0 1091 b 99 1091 0 1091 99 1091 b 99 198 99 1091 99 198 b 297 0 99 198 297 0 z "},"v":{"ha":1290,"x_min":0,"x_max":0,"o":"m 372 0 b 818 0 372 0 818 0 b 1091 1091 818 0 1091 1091 b 1190 1091 1091 1091 1190 1091 b 1190 1389 1190 1091 1190 1389 b 694 1389 1190 1389 694 1389 b 694 1091 694 1389 694 1091 b 769 1091 694 1091 769 1091 b 595 397 769 1091 595 397 b 421 1091 595 397 421 1091 b 496 1091 421 1091 496 1091 b 496 1389 496 1091 496 1389 b 0 1389 496 1389 0 1389 b 0 1091 0 1389 0 1091 b 99 1091 0 1091 99 1091 b 372 0 99 1091 372 0 z "},"w":{"ha":1686,"x_min":0,"x_max":0,"o":"m 372 0 b 719 0 372 0 719 0 b 793 297 719 0 793 297 b 868 0 793 297 868 0 b 1215 0 868 0 1215 0 b 1488 1091 1215 0 1488 1091 b 1587 1091 1488 1091 1587 1091 b 1587 1389 1587 1091 1587 1389 b 1091 1389 1587 1389 1091 1389 b 1091 1091 1091 1389 1091 1091 b 1165 1091 1091 1091 1165 1091 b 1042 595 1165 1091 1042 595 b 918 1091 1042 595 918 1091 b 669 1091 918 1091 669 1091 b 546 595 669 1091 546 595 b 421 1091 546 595 421 1091 b 496 1091 421 1091 496 1091 b 496 1389 496 1091 496 1389 b 0 1389 496 1389 0 1389 b 0 1091 0 1389 0 1091 b 99 1091 0 1091 99 1091 b 372 0 99 1091 372 0 z "},"x":{"ha":1190,"x_min":0,"x_max":0,"o":"m 0 0 b 496 0 0 0 496 0 b 496 297 496 0 496 297 b 446 297 496 297 446 297 b 546 496 446 297 546 496 b 645 297 546 496 645 297 b 595 297 645 297 595 297 b 595 0 595 297 595 0 b 1091 0 595 0 1091 0 b 1091 297 1091 0 1091 297 b 942 297 1091 297 942 297 b 744 694 942 297 744 694 b 942 1091 744 694 942 1091 b 1091 1091 942 1091 1091 1091 b 1091 1389 1091 1091 1091 1389 b 595 1389 1091 1389 595 1389 b 595 1091 595 1389 595 1091 b 645 1091 595 1091 645 1091 b 546 893 645 1091 546 893 b 446 1091 546 893 446 1091 b 496 1091 446 1091 496 1091 b 496 1389 496 1091 496 1389 b 0 1389 496 1389 0 1389 b 0 1091 0 1389 0 1091 b 149 1091 0 1091 149 1091 b 347 694 149 1091 347 694 b 149 297 347 694 149 297 b 0 297 149 297 0 297 b 0 0 0 297 0 0 z "},"y":{"ha":1190,"x_min":0,"x_max":0,"o":"m 297 0 b 793 0 297 0 793 0 b 793 297 793 0 793 297 b 694 297 793 297 694 297 b 694 595 694 297 694 595 b 942 1091 694 595 942 1091 b 1091 1091 942 1091 1091 1091 b 1091 1389 1091 1091 1091 1389 b 595 1389 1091 1389 595 1389 b 595 1091 595 1389 595 1091 b 645 1091 595 1091 645 1091 b 546 893 645 1091 546 893 b 446 1091 546 893 446 1091 b 496 1091 446 1091 496 1091 b 496 1389 496 1091 496 1389 b 0 1389 496 1389 0 1389 b 0 1091 0 1389 0 1091 b 149 1091 0 1091 149 1091 b 397 595 149 1091 397 595 b 397 297 397 595 397 297 b 297 297 397 297 297 297 b 297 0 297 297 297 0 z "},"z":{"ha":1091,"x_min":0,"x_max":0,"o":"m 989 3 b 989 399 989 3 989 399 b 692 399 989 399 692 399 b 692 300 692 399 692 300 b 444 300 692 300 444 300 b 989 1392 444 300 989 1392 b -3 1392 989 1392 -3 1392 b -3 995 -3 1392 -3 995 b 295 995 -3 995 295 995 b 295 1094 295 995 295 1094 b 543 1094 295 1094 543 1094 b -3 3 543 1094 -3 3 b 989 3 -3 3 989 3 z "}}}
